NotoSerif-Regular.ufo
<glyph name="uni0191" format="2">
  <advance width="698"/>
  <unicode hex="0191"/>
  <anchor x="145" y="-10" name="bottom"/>
  <anchor x="403" y="714" name="top"/>
  <anchor x="695" y="714" name="topright"/>
  <outline>
    <contour>
      <point x="145" y="-10" type="curve" smooth="yes"/>
      <point x="263" y="-10"/>
      <point x="342" y="57"/>
      <point x="342" y="187" type="curve" smooth="yes"/>
      <point x="342" y="346" type="line"/>
      <point x="583" y="346" type="line"/>
      <point x="583" y="395" type="line"/>
      <point x="342" y="395" type="line"/>
      <point x="342" y="664" type="line"/>
      <point x="506" y="664" type="line" smooth="yes"/>
      <point x="569" y="664"/>
      <point x="593" y="627"/>
      <point x="598" y="582" type="curve" smooth="yes"/>
      <point x="603" y="539" type="line"/>
      <point x="655" y="539" type="line"/>
      <point x="650" y="714" type="line"/>
      <point x="146" y="714" type="line"/>
      <point x="146" y="672" type="line"/>
      <point x="159" y="672" type="line" smooth="yes"/>
      <point x="203" y="672"/>
      <point x="241" y="663"/>
      <point x="241" y="604" type="curve" smooth="yes"/>
      <point x="241" y="169" type="line" smooth="yes"/>
      <point x="241" y="89"/>
      <point x="216" y="38"/>
      <point x="147" y="38" type="curve" smooth="yes"/>
      <point x="75" y="38"/>
      <point x="53" y="96"/>
      <point x="53" y="175" type="curve"/>
      <point x="29" y="175"/>
      <point x="-10" y="160"/>
      <point x="-10" y="106" type="curve" smooth="yes"/>
      <point x="-10" y="26"/>
      <point x="55" y="-10"/>
    </contour>
  </outline>
</glyph>
<glyph name="florin" format="2">
  <advance width="451"/>
  <unicode hex="0192"/>
  <anchor x="126" y="-10" name="bottom"/>
  <anchor x="370" y="772" name="top"/>
  <anchor x="521" y="770" name="topright"/>
  <outline>
    <contour>
      <point x="126" y="-10" type="curve" smooth="yes"/>
      <point x="218" y="-10"/>
      <point x="298" y="41"/>
      <point x="298" y="167" type="curve" smooth="yes"/>
      <point x="298" y="489" type="line"/>
      <point x="439" y="489" type="line"/>
      <point x="439" y="536" type="line"/>
      <point x="298" y="536" type="line"/>
      <point x="298" y="595" type="line" smooth="yes"/>
      <point x="298" y="679"/>
      <point x="316" y="724"/>
      <point x="373" y="724" type="curve" smooth="yes"/>
      <point x="424" y="724"/>
      <point x="439" y="684"/>
      <point x="439" y="644" type="curve"/>
      <point x="487" y="644"/>
      <point x="521" y="664"/>
      <point x="521" y="700" type="curve" smooth="yes"/>
      <point x="521" y="741"/>
      <point x="485" y="770"/>
      <point x="381" y="770" type="curve" smooth="yes"/>
      <point x="272" y="770"/>
      <point x="204" y="705"/>
      <point x="204" y="586" type="curve" smooth="yes"/>
      <point x="204" y="536" type="line"/>
      <point x="113" y="536" type="line"/>
      <point x="113" y="489" type="line"/>
      <point x="204" y="489" type="line"/>
      <point x="204" y="160" type="line" smooth="yes"/>
      <point x="204" y="73"/>
      <point x="175" y="38"/>
      <point x="130" y="38" type="curve" smooth="yes"/>
      <point x="81" y="38"/>
      <point x="56" y="74"/>
      <point x="56" y="144" type="curve"/>
      <point x="32" y="144"/>
      <point x="-7" y="129"/>
      <point x="-7" y="79" type="curve" smooth="yes"/>
      <point x="-7" y="19"/>
      <point x="58" y="-10"/>
    </contour>
  </outline>
</glyph>
<glyph name="uni1AB9" format="2">
  <unicode hex="1AB9"/>
  <anchor x="-422" y="72" name="_bottom"/>
  <anchor x="-422" y="-240" name="bottom"/>
  <outline>
    <contour>
      <point x="-448" y="-240" type="line"/>
      <point x="-348" y="26" type="line"/>
      <point x="-396" y="42" type="line"/>
      <point x="-496" y="-223" type="line"/>
    </contour>
  </outline>
</glyph>
<glyph name="uni1D09" format="2">
  <advance width="310"/>
  <unicode hex="1D09"/>
  <anchor x="155" y="-183" name="bottom"/>
  <anchor x="155" y="536" name="top"/>
  <outline>
    <contour>
      <point x="37" y="0" type="line"/>
      <point x="273" y="0" type="line"/>
      <point x="273" y="41" type="line"/>
      <point x="256" y="41" type="line" smooth="yes"/>
      <point x="225" y="41"/>
      <point x="200" y="47"/>
      <point x="200" y="89" type="curve" smooth="yes"/>
      <point x="200" y="447" type="line" smooth="yes"/>
      <point x="200" y="488"/>
      <point x="225" y="495"/>
      <point x="256" y="495" type="curve" smooth="yes"/>
      <point x="273" y="495" type="line"/>
      <point x="273" y="536" type="line"/>
      <point x="37" y="536" type="line"/>
      <point x="37" y="495" type="line"/>
      <point x="53" y="495" type="line" smooth="yes"/>
      <point x="85" y="495"/>
      <point x="109" y="488"/>
      <point x="109" y="447" type="curve" smooth="yes"/>
      <point x="109" y="89" type="line" smooth="yes"/>
      <point x="109" y="47"/>
      <point x="85" y="41"/>
      <point x="53" y="41" type="curve" smooth="yes"/>
      <point x="37" y="41" type="line"/>
    </contour>
    <contour>
      <point x="152" y="-183" type="curve" smooth="yes"/>
      <point x="183" y="-183"/>
      <point x="209" y="-167"/>
      <point x="209" y="-121" type="curve" smooth="yes"/>
      <point x="209" y="-74"/>
      <point x="183" y="-59"/>
      <point x="152" y="-59" type="curve" smooth="yes"/>
      <point x="120" y="-59"/>
      <point x="95" y="-74"/>
      <point x="95" y="-121" type="curve" smooth="yes"/>
      <point x="95" y="-167"/>
      <point x="120" y="-183"/>
    </contour>
  </outline>
</glyph>
<glyph name="uni1D24" format="2">
  <advance width="450"/>
  <unicode hex="1D24"/>
  <anchor x="225" y="0" name="bottom"/>
  <anchor x="225" y="536" name="top"/>
  <outline>
    <contour>
      <point x="236" y="-7" type="curve" smooth="yes"/>
      <point x="355" y="-7"/>
      <point x="410" y="41"/>
      <point x="410" y="81" type="curve" smooth="yes"/>
      <point x="410" y="96"/>
      <point x="399" y="107"/>
      <point x="385" y="116" type="curve"/>
      <point x="358" y="82"/>
      <point x="309" y="49"/>
      <point x="239" y="49" type="curve" smooth="yes"/>
      <point x="176" y="49"/>
      <point x="139" y="75"/>
      <point x="139" y="131" type="curve" smooth="yes"/>
      <point x="139" y="176"/>
      <point x="169" y="200"/>
      <point x="220" y="211" type="curve"/>
      <point x="220" y="246" type="line"/>
      <point x="318" y="257"/>
      <point x="396" y="306"/>
      <point x="396" y="406" type="curve" smooth="yes"/>
      <point x="396" y="483"/>
      <point x="344" y="543"/>
      <point x="230" y="543" type="curve" smooth="yes"/>
      <point x="126" y="543"/>
      <point x="73" y="497"/>
      <point x="73" y="452" type="curve" smooth="yes"/>
      <point x="73" y="417"/>
      <point x="101" y="399"/>
      <point x="147" y="399" type="curve"/>
      <point x="147" y="445"/>
      <point x="166" y="496"/>
      <point x="230" y="496" type="curve" smooth="yes"/>
      <point x="288" y="496"/>
      <point x="310" y="459"/>
      <point x="310" y="417" type="curve" smooth="yes"/>
      <point x="310" y="369"/>
      <point x="275" y="344"/>
      <point x="220" y="333" type="curve"/>
      <point x="220" y="296" type="line"/>
      <point x="127" y="279"/>
      <point x="51" y="237"/>
      <point x="51" y="135" type="curve" smooth="yes"/>
      <point x="51" y="51"/>
      <point x="109" y="-7"/>
    </contour>
  </outline>
</glyph>
<glyph name="uni1FEF" format="2">
  <advance width="254"/>
  <unicode hex="1FEF"/>
  <anchor x="111" y="536" name="_top"/>
  <anchor x="111" y="760" name="top"/>
  <outline>
    <contour>
      <point x="143" y="606" type="curve"/>
      <point x="176" y="606" type="line"/>
      <point x="176" y="619" type="line"/>
      <point x="161" y="655"/>
      <point x="141" y="717"/>
      <point x="135" y="760" type="curve"/>
      <point x="45" y="760" type="line"/>
      <point x="45" y="750" type="line"/>
      <point x="53" y="718"/>
      <point x="108" y="644"/>
    </contour>
  </outline>
</glyph>
<glyph name="uni1FFD" format="2">
  <advance width="254"/>
  <unicode hex="1FFD"/>
  <anchor x="144" y="536" name="_top"/>
  <anchor x="144" y="760" name="top"/>
  <outline>
    <contour>
      <point x="78" y="606" type="line"/>
      <point x="111" y="606" type="line"/>
      <point x="146" y="644"/>
      <point x="201" y="718"/>
      <point x="209" y="750" type="curve"/>
      <point x="209" y="760" type="line"/>
      <point x="119" y="760" type="line"/>
      <point x="113" y="717"/>
      <point x="93" y="655"/>
      <point x="78" y="619" type="curve"/>
    </contour>
  </outline>
</glyph>
<glyph name="plussuperior" format="2">
  <advance width="393"/>
  <unicode hex="207A"/>
  <outline>
    <contour>
      <point x="172" y="318" type="line"/>
      <point x="220" y="318" type="line"/>
      <point x="220" y="459" type="line"/>
      <point x="360" y="459" type="line"/>
      <point x="360" y="504" type="line"/>
      <point x="220" y="504" type="line"/>
      <point x="220" y="645" type="line"/>
      <point x="172" y="645" type="line"/>
      <point x="172" y="504" type="line"/>
      <point x="33" y="504" type="line"/>
      <point x="33" y="459" type="line"/>
      <point x="172" y="459" type="line"/>
    </contour>
  </outline>
</glyph>
<glyph name="parenleftsuperior" format="2">
  <advance width="250"/>
  <unicode hex="207D"/>
  <outline>
    <contour>
      <point x="229" y="196" type="curve"/>
      <point x="229" y="240" type="line"/>
      <point x="135" y="303"/>
      <point x="121" y="369"/>
      <point x="121" y="491" type="curve" smooth="yes"/>
      <point x="121" y="612"/>
      <point x="135" y="682"/>
      <point x="229" y="746" type="curve"/>
      <point x="229" y="788" type="line"/>
      <point x="93" y="737"/>
      <point x="33" y="674"/>
      <point x="33" y="491" type="curve" smooth="yes"/>
      <point x="33" y="302"/>
      <point x="85" y="247"/>
    </contour>
  </outline>
</glyph>
<glyph name="parenrightsuperior" format="2">
  <advance width="250"/>
  <unicode hex="207E"/>
  <outline>
    <contour>
      <point x="21" y="196" type="line"/>
      <point x="157" y="247"/>
      <point x="217" y="310"/>
      <point x="217" y="493" type="curve" smooth="yes"/>
      <point x="217" y="682"/>
      <point x="165" y="737"/>
      <point x="21" y="788" type="curve"/>
      <point x="21" y="744" type="line"/>
      <point x="115" y="681"/>
      <point x="129" y="615"/>
      <point x="129" y="493" type="curve"/>
      <point x="129" y="372"/>
      <point x="115" y="302"/>
      <point x="21" y="238" type="curve"/>
    </contour>
  </outline>
</glyph>
<glyph name="uni20A9" format="2">
  <advance width="1047"/>
  <unicode hex="20A9"/>
  <outline>
    <contour>
      <point x="276" y="0" type="line"/>
      <point x="368" y="0" type="line"/>
      <point x="446" y="285" type="line"/>
      <point x="601" y="285" type="line"/>
      <point x="684" y="0" type="line"/>
      <point x="774" y="0" type="line"/>
      <point x="855" y="285" type="line"/>
      <point x="1037" y="285" type="line"/>
      <point x="1037" y="332" type="line"/>
      <point x="868" y="332" type="line"/>
      <point x="888" y="402" type="line"/>
      <point x="1037" y="402" type="line"/>
      <point x="1037" y="449" type="line"/>
      <point x="902" y="449" type="line"/>
      <point x="943" y="594" type="line" smooth="yes"/>
      <point x="962" y="660"/>
      <point x="980" y="672"/>
      <point x="1019" y="672" type="curve" smooth="yes"/>
      <point x="1038" y="672" type="line"/>
      <point x="1038" y="714" type="line"/>
      <point x="794" y="714" type="line"/>
      <point x="794" y="672" type="line"/>
      <point x="817" y="672" type="line" smooth="yes"/>
      <point x="861" y="672"/>
      <point x="883" y="657"/>
      <point x="883" y="623" type="curve" smooth="yes"/>
      <point x="883" y="612"/>
      <point x="876" y="587"/>
      <point x="872" y="571" type="curve" smooth="yes"/>
      <point x="837" y="449" type="line"/>
      <point x="650" y="449" type="line"/>
      <point x="576" y="707" type="line"/>
      <point x="504" y="707" type="line"/>
      <point x="432" y="449" type="line"/>
      <point x="248" y="449" type="line"/>
      <point x="209" y="587" type="line" smooth="yes"/>
      <point x="205" y="602"/>
      <point x="201" y="613"/>
      <point x="201" y="624" type="curve" smooth="yes"/>
      <point x="201" y="657"/>
      <point x="221" y="672"/>
      <point x="261" y="672" type="curve" smooth="yes"/>
      <point x="284" y="672" type="line"/>
      <point x="284" y="714" type="line"/>
      <point x="9" y="714" type="line"/>
      <point x="9" y="672" type="line"/>
      <point x="22" y="672" type="line" smooth="yes"/>
      <point x="61" y="672"/>
      <point x="80" y="661"/>
      <point x="93" y="619" type="curve" smooth="yes"/>
      <point x="143" y="449" type="line"/>
      <point x="10" y="449" type="line"/>
      <point x="10" y="402" type="line"/>
      <point x="157" y="402" type="line"/>
      <point x="178" y="332" type="line"/>
      <point x="10" y="332" type="line"/>
      <point x="10" y="285" type="line"/>
      <point x="192" y="285" type="line"/>
    </contour>
    <contour>
      <point x="344" y="98" type="line"/>
      <point x="295" y="285" type="line"/>
      <point x="387" y="285" type="line"/>
    </contour>
    <contour>
      <point x="282" y="332" type="line"/>
      <point x="262" y="402" type="line"/>
      <point x="419" y="402" type="line"/>
      <point x="400" y="332" type="line"/>
    </contour>
    <contour>
      <point x="744" y="98" type="line"/>
      <point x="698" y="285" type="line"/>
      <point x="790" y="285" type="line"/>
    </contour>
    <contour>
      <point x="459" y="332" type="line"/>
      <point x="478" y="402" type="line"/>
      <point x="567" y="402" type="line"/>
      <point x="587" y="332" type="line"/>
    </contour>
    <contour>
      <point x="491" y="449" type="line"/>
      <point x="521" y="560" type="line"/>
      <point x="553" y="449" type="line"/>
    </contour>
    <contour>
      <point x="684" y="332" type="line"/>
      <point x="664" y="402" type="line"/>
      <point x="824" y="402" type="line"/>
      <point x="804" y="332" type="line"/>
    </contour>
  </outline>
</glyph>
<glyph name="uniA765" format="2">
  <advance width="624"/>
  <unicode hex="A765"/>
  <anchor x="307" y="-240" name="bottom"/>
  <anchor x="307" y="760" name="top"/>
  <outline>
    <contour>
      <point x="27" y="593" type="line"/>
      <point x="341" y="593" type="line"/>
      <point x="341" y="640" type="line"/>
      <point x="27" y="640" type="line"/>
    </contour>
    <component base="thorn"/>
  </outline>
</glyph>
<glyph name="uniA7A7" format="2">
  <advance width="471"/>
  <unicode hex="A7A7"/>
  <anchor x="166" y="0" name="bottom"/>
  <anchor x="246" y="536" name="top"/>
  <anchor x="451" y="536" name="topright"/>
  <outline>
    <contour>
      <point x="28" y="181" type="line"/>
      <point x="329" y="241" type="line"/>
      <point x="329" y="286" type="line"/>
      <point x="28" y="226" type="line"/>
    </contour>
    <component base="r"/>
  </outline>
</glyph>
<glyph name="uniA7A9" format="2">
  <advance width="451"/>
  <unicode hex="A7A9"/>
  <anchor x="226" y="0" name="bottom"/>
  <anchor x="226" y="536" name="top"/>
  <anchor x="411" y="536" name="topright"/>
  <outline>
    <contour>
      <point x="19" y="205" type="line"/>
      <point x="434" y="310" type="line"/>
      <point x="434" y="355" type="line"/>
      <point x="19" y="250" type="line"/>
    </contour>
    <component base="s"/>
  </outline>
</glyph>
<glyph name="uniA7AE" format="2">
  <advance width="547"/>
  <unicode hex="A7AE"/>
  <outline>
    <contour>
      <point x="26" y="0" type="line"/>
      <point x="521" y="0" type="line"/>
      <point x="527" y="160" type="line"/>
      <point x="478" y="160" type="line"/>
      <point x="473" y="127" type="line" smooth="yes"/>
      <point x="463" y="64"/>
      <point x="450" y="46"/>
      <point x="403" y="46" type="curve" smooth="yes"/>
      <point x="321" y="46" type="line"/>
      <point x="321" y="490" type="line"/>
      <point x="403" y="490" type="line" smooth="yes"/>
      <point x="450" y="490"/>
      <point x="463" y="472"/>
      <point x="473" y="409" type="curve" smooth="yes"/>
      <point x="478" y="376" type="line"/>
      <point x="527" y="376" type="line"/>
      <point x="521" y="536" type="line"/>
      <point x="26" y="536" type="line"/>
      <point x="20" y="376" type="line"/>
      <point x="69" y="376" type="line"/>
      <point x="74" y="409" type="line" smooth="yes"/>
      <point x="84" y="472"/>
      <point x="98" y="490"/>
      <point x="144" y="490" type="curve" smooth="yes"/>
      <point x="227" y="490" type="line"/>
      <point x="227" y="46" type="line"/>
      <point x="144" y="46" type="line" smooth="yes"/>
      <point x="98" y="46"/>
      <point x="84" y="64"/>
      <point x="74" y="127" type="curve" smooth="yes"/>
      <point x="69" y="160" type="line"/>
      <point x="20" y="160" type="line"/>
    </contour>
  </outline>
</glyph>
<glyph name="uniA7FF" format="2">
  <advance width="1024"/>
  <unicode hex="A7FF"/>
  <outline>
    <contour>
      <point x="1" y="0" type="line"/>
      <point x="215" y="0" type="line"/>
      <point x="215" y="42" type="line"/>
      <point x="208" y="42" type="line" smooth="yes"/>
      <point x="163" y="42"/>
      <point x="142" y="57"/>
      <point x="142" y="91" type="curve" smooth="yes"/>
      <point x="142" y="102"/>
      <point x="145" y="117"/>
      <point x="151" y="134" type="curve" smooth="yes"/>
      <point x="208" y="297" type="line" smooth="yes"/>
      <point x="223" y="341"/>
      <point x="236" y="384"/>
      <point x="251" y="427" type="curve"/>
      <point x="254" y="427" type="line"/>
      <point x="262" y="389"/>
      <point x="276" y="333"/>
      <point x="290" y="283" type="curve" smooth="yes"/>
      <point x="368" y="0" type="line"/>
      <point x="447" y="0" type="line"/>
      <point x="589" y="418" type="line"/>
      <point x="726" y="0" type="line"/>
      <point x="806" y="0" type="line"/>
      <point x="935" y="416" type="line" smooth="yes"/>
      <point x="955" y="482"/>
      <point x="972" y="494"/>
      <point x="1010" y="494" type="curve" smooth="yes"/>
      <point x="1023" y="494" type="line"/>
      <point x="1023" y="536" type="line"/>
      <point x="809" y="536" type="line"/>
      <point x="809" y="494" type="line"/>
      <point x="816" y="494" type="line" smooth="yes"/>
      <point x="861" y="494"/>
      <point x="882" y="479"/>
      <point x="882" y="445" type="curve" smooth="yes"/>
      <point x="882" y="434"/>
      <point x="878" y="412"/>
      <point x="873" y="395" type="curve" smooth="yes"/>
      <point x="823" y="234" type="line" smooth="yes"/>
      <point x="803" y="169"/>
      <point x="790" y="121"/>
      <point x="784" y="88" type="curve"/>
      <point x="781" y="88" type="line"/>
      <point x="775" y="122"/>
      <point x="754" y="188"/>
      <point x="738" y="237" type="curve" smooth="yes"/>
      <point x="638" y="533" type="line"/>
      <point x="575" y="533" type="line"/>
      <point x="471" y="231" type="line" smooth="yes"/>
      <point x="454" y="183"/>
      <point x="436" y="121"/>
      <point x="430" y="88" type="curve"/>
      <point x="427" y="88" type="line"/>
      <point x="418" y="134"/>
      <point x="405" y="185"/>
      <point x="391" y="235" type="curve" smooth="yes"/>
      <point x="307" y="536" type="line"/>
      <point x="240" y="536" type="line"/>
      <point x="89" y="120" type="line" smooth="yes"/>
      <point x="66" y="55"/>
      <point x="52" y="42"/>
      <point x="13" y="42" type="curve" smooth="yes"/>
      <point x="1" y="42" type="line"/>
    </contour>
  </outline>
</glyph>
<glyph name="uniAB3F" format="2">
  <advance width="492"/>
  <unicode hex="AB3F"/>
  <anchor x="226" y="541" name="bottom"/>
  <anchor x="226" y="5" name="top"/>
  <anchor x="20" y="5" name="topright"/>
  <outline>
    <contour>
      <point x="-1" y="-40" type="line"/>
      <point x="58" y="-40" type="line"/>
      <point x="437" y="576" type="line"/>
      <point x="379" y="576" type="line"/>
    </contour>
    <component base="c" xScale="-1" yScale="-1" xOffset="492" yOffset="541"/>
  </outline>
</glyph>
<glyph name="uniAB41" format="2">
  <advance width="905"/>
  <unicode hex="AB41"/>
  <anchor x="452" y="537" name="bottom"/>
  <anchor x="452" y="1" name="top"/>
  <outline>
    <contour>
      <point x="400" y="-40" type="line"/>
      <point x="459" y="-40" type="line"/>
      <point x="838" y="576" type="line"/>
      <point x="780" y="576" type="line"/>
    </contour>
    <component base="oe" xScale="-1" yScale="-1" xOffset="905" yOffset="537"/>
  </outline>
</glyph>
<glyph name="uniAB42" format="2">
  <advance width="905"/>
  <unicode hex="AB42"/>
  <anchor x="456" y="535" name="bottom"/>
  <anchor x="456" y="-1" name="top"/>
  <outline>
    <contour>
      <point x="466" y="304" type="line"/>
      <point x="466" y="252" type="line"/>
      <point x="781" y="252" type="line"/>
      <point x="781" y="304" type="line"/>
    </contour>
    <component base="oe" xScale="-1" yScale="-1" xOffset="909" yOffset="535"/>
  </outline>
</glyph>
<glyph name="uniFE21" format="2">
  <unicode hex="FE21"/>
  <anchor x="-1" y="536" name="_top"/>
  <outline>
    <contour>
      <point x="341" y="593" type="curve"/>
      <point x="387" y="593" type="line"/>
      <point x="306" y="728"/>
      <point x="186" y="781"/>
      <point x="11" y="781" type="curve" smooth="yes"/>
      <point x="-1" y="781" type="line"/>
      <point x="-1" y="714" type="line"/>
      <point x="155" y="714"/>
      <point x="266" y="684"/>
    </contour>
  </outline>
</glyph>
<glyph name="uniFE22" format="2">
  <unicode hex="FE22"/>
  <anchor x="3" y="536" name="_top"/>
  <outline>
    <contour>
      <point x="-384" y="596" type="curve"/>
      <point x="-339" y="596" type="line"/>
      <point x="-315" y="648"/>
      <point x="-276" y="665"/>
      <point x="-210" y="665" type="curve" smooth="yes"/>
      <point x="-133" y="665"/>
      <point x="-68" y="644"/>
      <point x="3" y="626" type="curve"/>
      <point x="3" y="695" type="line"/>
      <point x="-57" y="710"/>
      <point x="-126" y="725"/>
      <point x="-207" y="725" type="curve" smooth="yes"/>
      <point x="-306" y="725"/>
      <point x="-364" y="672"/>
    </contour>
  </outline>
</glyph>
<glyph name="uniFE23" format="2">
  <unicode hex="FE23"/>
  <anchor x="-3" y="536" name="_top"/>
  <outline>
    <contour>
      <point x="207" y="597" type="curve" smooth="yes"/>
      <point x="306" y="597"/>
      <point x="364" y="650"/>
      <point x="384" y="726" type="curve"/>
      <point x="339" y="726" type="line"/>
      <point x="315" y="674"/>
      <point x="276" y="657"/>
      <point x="210" y="657" type="curve" smooth="yes"/>
      <point x="133" y="657"/>
      <point x="68" y="678"/>
      <point x="-3" y="696" type="curve"/>
      <point x="-3" y="627" type="line"/>
      <point x="57" y="612"/>
      <point x="126" y="597"/>
    </contour>
  </outline>
</glyph>
<glyph name="uniFE27" format="2">
  <unicode hex="FE27"/>
  <anchor x="0" y="0" name="_bottom"/>
  <anchor x="-189" y="536" name="braceleft"/>
  <outline>
    <contour>
      <point x="0" y="-207" type="curve"/>
      <point x="0" y="-147" type="line"/>
      <point x="-162" y="-147"/>
      <point x="-276" y="-106"/>
      <point x="-333" y="-26" type="curve"/>
      <point x="-377" y="-26" type="line"/>
      <point x="-305" y="-153"/>
      <point x="-182" y="-207"/>
    </contour>
  </outline>
</glyph>
<glyph name="uniFE29" format="2">
  <unicode hex="FE29"/>
  <anchor x="0" y="0" name="_bottom"/>
  <anchor x="-192" y="536" name="braceleft"/>
  <outline>
    <contour>
      <point x="-384" y="-196" type="curve"/>
      <point x="-339" y="-196" type="line"/>
      <point x="-328" y="-172"/>
      <point x="-313" y="-154"/>
      <point x="-293" y="-143" type="curve" smooth="yes"/>
      <point x="-274" y="-133"/>
      <point x="-246" y="-127"/>
      <point x="-210" y="-127" type="curve" smooth="yes"/>
      <point x="-159" y="-127"/>
      <point x="-95" y="-140"/>
      <point x="0" y="-165" type="curve"/>
      <point x="0" y="-97" type="line"/>
      <point x="-73" y="-77"/>
      <point x="-143" y="-67"/>
      <point x="-207" y="-67" type="curve" smooth="yes"/>
      <point x="-300" y="-67"/>
      <point x="-363" y="-115"/>
    </contour>
  </outline>
</glyph>
<glyph name="uniFE2A" format="2">
  <unicode hex="FE2A"/>
  <anchor x="0" y="0" name="_bottom"/>
  <anchor x="192" y="536" name="braceleft"/>
  <outline>
    <contour>
      <point x="203" y="-195" type="curve" smooth="yes"/>
      <point x="308" y="-195"/>
      <point x="368" y="-148"/>
      <point x="384" y="-66" type="curve"/>
      <point x="339" y="-66" type="line"/>
      <point x="333" y="-87"/>
      <point x="318" y="-104"/>
      <point x="294" y="-116" type="curve"/>
      <point x="271" y="-129"/>
      <point x="242" y="-135"/>
      <point x="210" y="-135" type="curve" smooth="yes"/>
      <point x="161" y="-135"/>
      <point x="99" y="-123"/>
      <point x="0" y="-97" type="curve"/>
      <point x="0" y="-165" type="line"/>
      <point x="74" y="-185"/>
      <point x="141" y="-195"/>
    </contour>
  </outline>
</glyph>
<glyph name="uniFE2E" format="2">
  <unicode hex="FE2E"/>
  <anchor x="-87" y="536" name="_top"/>
  <outline>
    <contour>
      <point x="-87" y="570" type="curve" smooth="yes"/>
      <point x="-59" y="570"/>
      <point x="-44" y="585"/>
      <point x="-39" y="616" type="curve"/>
      <point x="134" y="616" type="line"/>
      <point x="134" y="669" type="line"/>
      <point x="-86" y="669" type="line" smooth="yes"/>
      <point x="-122" y="669"/>
      <point x="-134" y="661"/>
      <point x="-134" y="622" type="curve" smooth="yes"/>
      <point x="-134" y="587"/>
      <point x="-118" y="570"/>
    </contour>
  </outline>
</glyph>
<glyph name="uniFE2F" format="2">
  <unicode hex="FE2F"/>
  <anchor x="86" y="536" name="_top"/>
  <outline>
    <contour>
      <point x="-134" y="616" type="line"/>
      <point x="85" y="616" type="line" smooth="yes"/>
      <point x="122" y="616"/>
      <point x="134" y="627"/>
      <point x="134" y="664" type="curve" smooth="yes"/>
      <point x="134" y="698"/>
      <point x="118" y="715"/>
      <point x="86" y="715" type="curve" smooth="yes"/>
      <point x="57" y="715"/>
      <point x="42" y="700"/>
      <point x="38" y="669" type="curve"/>
      <point x="-134" y="669" type="line"/>
    </contour>
  </outline>
</glyph>
